# xmcd
#
# Track frame offsets: 
#        150
#        21310
#        41710
#        57740
#        76672
#        100510
#        124080
#        141937
#        160737
#        179770
#        199675
#        223430
#        242565
#        273267
#        294580
#        316505
#
# Disc length: 4482 seconds
#
# Revision: 6
# Processed by: cddbd v1.5.2PL0 Copyright (c) Steve Scherf et al.
# Submitted via: ExactAudioCopy v0.95b4
#
DISCID=e9118010
DTITLE=Marx, Richard - Greatest Hits
DYEAR=1997
DGENRE=Rock
TTITLE0=Don't Mean Nothing
TTITLE1=Endless Summer Nights
TTITLE2=Now And Forever
TTITLE3=Should've Known Better
TTITLE4=Angelia
TTITLE5=Hold On To The Nights
TTITLE6=Angel's Lullaby
TTITLE7=Take This Heart
TTITLE8=Satisfied
TTITLE9=Until I Find You Again
TTITLE10=Hazard
TTITLE11=The Way She Loves Me
TTITLE12=Keep Coming Back
TTITLE13=Children Of The Night
TTITLE14=Touch Of Heaven
TTITLE15=Right Here Waiting
EXTD=1997 Capitol Records Ltd. YEAR: 1997 ID3G:  17
EXTT0=
EXTT1=
EXTT2=
EXTT3=
EXTT4=
EXTT5=
EXTT6=
EXTT7=
EXTT8=
EXTT9=Duet with Lara Fabian
EXTT10=
EXTT11=Backvocals feat. Lionel Richie and Luther Vandross
EXTT12=Backvocals feat. Luther Vandross
EXTT13=
EXTT14=
EXTT15=
PLAYORDER=
